<svg width="96" height="28" viewBox="0 0 96 28" fill="none" xmlns="http://www.w3.org/2000/svg">
<g clip-path="url(#clip0_2413_2025)">
<path d="M4.26772 3.72464L13.2142 22.4366L21.5177 3.72464H23.4106L12.6606 27.7931H11.6249L0.0712891 3.72464H4.26772ZM28.8284 9.77281L31.382 8.74407H32.4356V27.2432H28.8284V9.77281ZM28.5427 2.12836C28.5427 1.84457 28.5963 1.57853 28.7034 1.33021C28.8106 1.0819 28.9594 0.863156 29.1499 0.673963C29.3404 0.484774 29.5605 0.33697 29.8106 0.230552C30.0606 0.124132 30.3285 0.0709229 30.6142 0.0709229C30.8999 0.0709229 31.1677 0.124132 31.4177 0.230552C31.6677 0.33697 31.8879 0.484774 32.0784 0.673963C32.2689 0.863156 32.4177 1.0819 32.5249 1.33021C32.632 1.57853 32.6856 1.84457 32.6856 2.12836C32.6856 2.41214 32.632 2.67818 32.5249 2.9265C32.4177 3.17481 32.2689 3.39355 32.0784 3.58275C31.8879 3.77194 31.6677 3.91974 31.4177 4.02616C31.1677 4.13258 30.8999 4.18579 30.6142 4.18579C30.3285 4.18579 30.0606 4.13258 29.8106 4.02616C29.5605 3.91974 29.3404 3.77194 29.1499 3.58275C28.9594 3.39355 28.8106 3.17481 28.7034 2.9265C28.5963 2.67818 28.5427 2.41214 28.5427 2.12836ZM41.7463 9.08106L48.2106 22.8269L54.407 9.08106H56.0498L47.8177 27.4383H46.5677L37.9427 9.08106H41.7463ZM63.9677 8.74407H64.5213L65.0034 12.451C65.2892 11.9071 65.6463 11.4104 66.0748 10.9611C66.5034 10.5118 66.9737 10.1216 67.4856 9.79052C68.0094 9.45944 68.557 9.20524 69.1284 9.02786C69.7118 8.83867 70.301 8.74407 70.8963 8.74407C71.432 8.74407 71.9558 8.81498 72.4678 8.95687C72.9916 9.09877 73.4796 9.32345 73.932 9.63092L72.7891 12.6638C72.551 12.4037 72.301 12.1968 72.0392 12.0431C71.7772 11.8775 71.5094 11.7533 71.2356 11.6706C70.9618 11.576 70.682 11.5169 70.3963 11.4932C70.1106 11.4695 69.8249 11.4577 69.5391 11.4577C69.0868 11.4577 68.6403 11.5228 68.1999 11.6528C67.7713 11.7829 67.3606 11.978 66.9677 12.2382C66.5749 12.4865 66.2118 12.8116 65.8784 13.2136C65.5451 13.6039 65.2534 14.065 65.0034 14.5971V27.2432H61.3785V9.73732L63.9677 8.74407ZM86.7603 27.6334C85.5222 27.6334 84.3557 27.4028 83.2608 26.9417C82.1774 26.4806 81.2311 25.8539 80.4212 25.0616C79.6121 24.2694 78.969 23.3412 78.4928 22.277C78.0281 21.201 77.7964 20.0599 77.7964 18.8539C77.7964 17.3995 78.0105 16.0574 78.4395 14.8277C78.8677 13.5861 79.4749 12.5161 80.2604 11.6174C81.046 10.7188 81.9869 10.0152 83.0818 9.50673C84.1888 8.99827 85.4216 8.74407 86.7785 8.74407C87.9686 8.74407 89.0642 8.95687 90.0639 9.38255C91.0642 9.79642 91.9214 10.3581 92.6353 11.0675C93.3614 11.7652 93.9214 12.5752 94.3138 13.4974C94.7191 14.4197 94.921 15.3834 94.921 16.3885H81.2966C81.2966 17.6064 81.4513 18.7356 81.7606 19.7761C82.0822 20.8167 82.5286 21.7153 83.1001 22.4721C83.6715 23.2288 84.3496 23.8201 85.1359 24.2458C85.9214 24.6715 86.7846 24.8843 87.7248 24.8843C88.5103 24.8843 89.2662 24.7601 89.993 24.5118C90.7191 24.2517 91.3736 23.9147 91.9572 23.5008C92.5523 23.087 93.0582 22.614 93.4749 22.0819C93.8917 21.5498 94.1835 21 94.3496 20.4324L95.4033 20.8936C95.1412 21.8277 94.7191 22.7027 94.1355 23.5185C93.5519 24.3344 92.8677 25.0498 92.0822 25.6647C91.3081 26.2677 90.4631 26.7466 89.5465 27.1013C88.63 27.456 87.7012 27.6334 86.7603 27.6334ZM90.3679 14.9341C90.3679 14.2483 90.2429 13.6098 89.993 13.0185C89.7545 12.4274 89.4216 11.9189 88.9926 11.4932C88.5644 11.0557 88.0639 10.7128 87.4924 10.4645C86.921 10.2162 86.3084 10.092 85.6532 10.092C85.1062 10.092 84.582 10.2162 84.0822 10.4645C83.5823 10.701 83.1359 11.038 82.7427 11.4755C82.3496 11.9012 82.0227 12.4096 81.7606 13.0008C81.5107 13.592 81.3614 14.2306 81.3142 14.9163L90.3679 14.9341Z" fill="#343A40"/>
</g>
<defs>
<clipPath id="clip0_2413_2025">
<rect width="96" height="28" fill="white"/>
</clipPath>
</defs>
</svg>
