<svg width="68" height="20" viewBox="0 0 68 20" fill="none" xmlns="http://www.w3.org/2000/svg">
<g clip-path="url(#clip0_2413_2027)">
<path d="M3.02325 2.66046L9.36033 16.0261L15.242 2.66046H16.5828L8.9682 19.8522H8.23455L0.0507812 2.66046H3.02325ZM20.4204 6.98058L22.2292 6.24577H22.9755V19.4594H20.4204V6.98058ZM20.218 1.52025C20.218 1.31755 20.256 1.12752 20.3319 0.950151C20.4078 0.772789 20.5132 0.61654 20.6481 0.481402C20.783 0.346267 20.939 0.240693 21.1161 0.16468C21.2932 0.0886657 21.483 0.0506592 21.6853 0.0506592C21.8877 0.0506592 22.0774 0.0886657 22.2545 0.16468C22.4316 0.240693 22.5876 0.346267 22.7225 0.481402C22.8574 0.61654 22.9628 0.772789 23.0387 0.950151C23.1146 1.12752 23.1526 1.31755 23.1526 1.52025C23.1526 1.72296 23.1146 1.91299 23.0387 2.09036C22.9628 2.26772 22.8574 2.42397 22.7225 2.55911C22.5876 2.69424 22.4316 2.79982 22.2545 2.87583C22.0774 2.95184 21.8877 2.98985 21.6853 2.98985C21.483 2.98985 21.2932 2.95184 21.1161 2.87583C20.939 2.79982 20.783 2.69424 20.6481 2.55911C20.5132 2.42397 20.4078 2.26772 20.3319 2.09036C20.256 1.91299 20.218 1.72296 20.218 1.52025ZM29.5706 6.48647L34.1495 16.3049L38.5386 6.48647H39.7023L33.8711 19.5988H32.9857L26.8764 6.48647H29.5706ZM45.3107 6.24577H45.7029L46.0444 8.89355C46.2468 8.50506 46.4997 8.15031 46.8033 7.82939C47.1069 7.50841 47.44 7.22971 47.8026 6.99323C48.1736 6.75674 48.5615 6.57517 48.9662 6.44847C49.3795 6.31333 49.7969 6.24577 50.2185 6.24577C50.598 6.24577 50.969 6.29642 51.3316 6.39777C51.7026 6.49912 52.0484 6.6596 52.3688 6.87923L51.5592 9.0456C51.3906 8.85977 51.2135 8.71198 51.028 8.6022C50.8425 8.48393 50.6527 8.39523 50.4588 8.33614C50.2649 8.26858 50.0667 8.22636 49.8643 8.20944C49.6619 8.19252 49.4596 8.18409 49.2572 8.18409C48.9368 8.18409 48.6205 8.23058 48.3085 8.32344C48.005 8.41636 47.714 8.55571 47.4357 8.74155C47.1575 8.9189 46.9003 9.15117 46.6642 9.43831C46.4281 9.71706 46.2215 10.0464 46.0444 10.4265V19.4594H43.4767V6.95523L45.3107 6.24577ZM61.4555 19.7381C60.5785 19.7381 59.7522 19.5734 58.9767 19.2441C58.2093 18.9147 57.539 18.4671 56.9653 17.9012C56.3922 17.3353 55.9367 16.6723 55.5994 15.9121C55.2702 15.1435 55.1061 14.3285 55.1061 13.4671C55.1061 12.4282 55.2577 11.4696 55.5616 10.5912C55.8649 9.70436 56.295 8.94004 56.8514 8.29814C57.4078 7.65625 58.0743 7.15371 58.8499 6.79052C59.634 6.42733 60.5072 6.24577 61.4684 6.24577C62.3114 6.24577 63.0875 6.39777 63.7955 6.70182C64.5041 6.99744 65.1113 7.39863 65.617 7.90539C66.1313 8.40371 66.5279 8.98225 66.8059 9.64101C67.093 10.2998 67.236 10.9881 67.236 11.706H57.5854C57.5854 12.576 57.6949 13.3826 57.9141 14.1258C58.1418 14.8691 58.4581 15.511 58.8628 16.0515C59.2676 16.592 59.7479 17.0144 60.3049 17.3184C60.8613 17.6225 61.4727 17.7745 62.1387 17.7745C62.6951 17.7745 63.2305 17.6858 63.7453 17.5084C64.2597 17.3226 64.7232 17.0819 65.1366 16.7863C65.5581 16.4907 65.9165 16.1528 66.2117 15.7728C66.5069 15.3927 66.7136 15 66.8312 14.5946L67.5776 14.924C67.392 15.5912 67.093 16.2162 66.6796 16.799C66.2662 17.3817 65.7816 17.8927 65.2251 18.3319C64.6768 18.7626 64.0783 19.1047 63.4291 19.3581C62.7798 19.6114 62.122 19.7381 61.4555 19.7381ZM64.0109 10.6672C64.0109 10.1773 63.9223 9.72128 63.7453 9.29895C63.5764 8.87669 63.3406 8.5135 63.0367 8.20944C62.7334 7.89696 62.3789 7.65198 61.9741 7.47463C61.5693 7.29728 61.1354 7.20858 60.6713 7.20858C60.2838 7.20858 59.9125 7.29728 59.5585 7.47463C59.2044 7.64355 58.8882 7.88425 58.6097 8.19679C58.3312 8.50085 58.0997 8.86398 57.9141 9.28631C57.737 9.70858 57.6313 10.1647 57.5978 10.6545L64.0109 10.6672Z" fill="#343A40"/>
</g>
<defs>
<clipPath id="clip0_2413_2027">
<rect width="68" height="20" fill="white"/>
</clipPath>
</defs>
</svg>
